HIERARCHY
ROOT Hips
{
 OFFSET 0.000000 0.000000 0.000000
 CHANNELS 6 Xposition Yposition Zposition Yrotation Xrotation Zrotation
 JOINT Chest
 {
  OFFSET 0.000000 9.585900 0.002600
  CHANNELS 3 Yrotation Xrotation Zrotation
  JOINT Chest2
  {
   OFFSET 0.000000 9.601200 -0.005300
   CHANNELS 3 Yrotation Xrotation Zrotation
   JOINT Chest3
   {
    OFFSET 0.000000 9.561800 0.000000
    CHANNELS 3 Yrotation Xrotation Zrotation
    JOINT Chest4
    {
     OFFSET 0.000000 9.552100 0.000000
     CHANNELS 3 Yrotation Xrotation Zrotation
     JOINT Neck
     {
      OFFSET 0.000000 14.453000 0.000000
      CHANNELS 3 Yrotation Xrotation Zrotation
      JOINT Head
      {
       OFFSET 0.000000 8.936500 -0.011300
       CHANNELS 3 Yrotation Xrotation Zrotation
       End Site
       {
        OFFSET 0.000000 17.073600 -0.006000
       }
      }
     }
     JOINT RightCollar
     {
      OFFSET -2.921100 9.558500 0.000000
      CHANNELS 3 Yrotation Xrotation Zrotation
      JOINT RightShoulder
      {
       OFFSET -13.519700 0.000000 0.000000
       CHANNELS 3 Yrotation Xrotation Zrotation
       JOINT RightElbow
       {
        OFFSET 0.000000 -29.696600 0.000000
        CHANNELS 3 Yrotation Xrotation Zrotation
        JOINT RightWrist
        {
         OFFSET 0.000000 -24.004700 0.000000
         CHANNELS 3 Yrotation Xrotation Zrotation
         End Site
         {
          OFFSET 0.000000 -17.728500 0.000000
         }
        }
       }
      }
     }
     JOINT LeftCollar
     {
      OFFSET 2.921100 9.558500 0.000000
      CHANNELS 3 Yrotation Xrotation Zrotation
      JOINT LeftShoulder
      {
       OFFSET 13.519700 0.000000 0.000000
       CHANNELS 3 Yrotation Xrotation Zrotation
       JOINT LeftElbow
       {
        OFFSET 0.000000 -29.696600 0.000000
        CHANNELS 3 Yrotation Xrotation Zrotation
        JOINT LeftWrist
        {
         OFFSET 0.000000 -24.004700 0.000000
         CHANNELS 3 Yrotation Xrotation Zrotation
         End Site
         {
          OFFSET 0.000000 -17.728500 0.000000
         }
        }
       }
      }
     }
    }
   }
  }
 }
 JOINT RightHip
 {
  OFFSET -7.771700 -0.012900 -0.001300
  CHANNELS 3 Yrotation Xrotation Zrotation
  JOINT RightKnee
  {
   OFFSET 0.000000 -40.869800 0.001200
   CHANNELS 3 Yrotation Xrotation Zrotation
   JOINT RightAnkle
   {
    OFFSET 0.000000 -39.717900 0.002100
    CHANNELS 3 Yrotation Xrotation Zrotation
    JOINT RightToe
    {
     OFFSET 0.000000 -4.965400 11.033500
     CHANNELS 3 Yrotation Xrotation Zrotation
     End Site
     {
      OFFSET 0.000000 -1.423100 5.872300
     }
    }
   }
  }
 }
 JOINT LeftHip
 {
  OFFSET 7.771700 -0.012900 -0.001300
  CHANNELS 3 Yrotation Xrotation Zrotation
  JOINT LeftKnee
  {
   OFFSET 0.000000 -40.869800 0.001200
   CHANNELS 3 Yrotation Xrotation Zrotation
   JOINT LeftAnkle
   {
    OFFSET 0.000000 -39.717900 0.002100
    CHANNELS 3 Yrotation Xrotation Zrotation
    JOINT LeftToe
    {
     OFFSET 0.000000 -4.965400 11.033500
     CHANNELS 3 Yrotation Xrotation Zrotation
     End Site
     {
      OFFSET 0.000000 -1.423100 5.872300
     }
    }
   }
  }
 }
}
MOTION
Frames: 6
Frame Time: 0.008333
-109.712745 51.914748 -43.605169 176.957122 -21.754804 -1.190484 -1.972887 12.431037 -0.155027 -0.159958 0.952580 0.045189 -0.265938 1.644378 0.073032 -1.883675 11.322780 0.371567 2.801021 14.514839 -3.518235 3.764196 -10.481679 -4.377365 2.376410 15.221242 9.794907 18.246825 -7.634044 -32.647967 133.076477 -39.068587 -174.248547 0.989431 0.984997 -8.538375 -2.706735 14.451431 -12.557116 -30.072320 -6.031284 33.031917 -118.329309 -42.033117 167.080036 10.454330 1.537893 24.616178 -15.157962 -60.391298 9.569070 -81.334154 78.866344 -89.557519 -4.175417 -11.644709 7.775389 0.373289 -0.745110 0.131715 10.285565 -59.104636 -7.564714 31.945152 84.293744 37.879290 -2.836686 -11.538822 0.761410 0.127160 0.548053 0.035057
-109.710910 51.910664 -43.605502 176.946706 -21.731771 -1.172739 -1.962197 12.426245 -0.169153 -0.152441 0.973169 0.044595 -0.269990 1.625536 0.074535 -1.877988 11.323914 0.369109 2.799047 14.526863 -3.516261 3.768008 -10.450203 -4.378646 2.388335 15.200690 9.763332 18.248433 -7.620917 -32.640494 133.068815 -39.082222 -174.245110 0.980932 0.978917 -8.531929 -2.679942 14.491557 -12.522763 -29.998388 -5.980881 32.953714 -118.433447 -41.973556 167.150714 10.461015 1.566007 24.591163 -15.176887 -60.414473 9.574706 -81.313169 78.879878 -89.543036 -4.155167 -11.646628 7.772437 0.358963 -0.750004 0.122632 10.318163 -59.123332 -7.594359 31.958334 84.293750 37.893189 -2.837741 -11.538087 0.757715 0.128528 0.544365 0.039770
-109.709435 51.907527 -43.608140 176.938643 -21.723453 -1.158081 -1.951545 12.437812 -0.180365 -0.148961 0.972711 0.047533 -0.269114 1.626453 0.074224 -1.855113 11.351798 0.361903 2.772729 14.488864 -3.506550 3.789185 -10.323913 -4.378462 2.388937 15.153639 9.746331 18.246801 -7.606746 -32.636158 133.054517 -39.095061 -174.234254 0.973088 0.959457 -8.491508 -2.686926 14.474891 -12.493260 -29.946449 -5.935588 32.904250 -118.493203 -41.955402 167.182530 10.465857 1.570110 24.562659 -15.200591 -60.421104 9.581111 -81.290749 78.893236 -89.530088 -4.133747 -11.644357 7.764949 0.345047 -0.760235 0.117770 10.342064 -59.126868 -7.614111 31.998518 84.293445 37.931988 -2.841067 -11.540755 0.755967 0.128657 0.540616 0.043872
-109.706384 51.904311 -43.610444 176.941014 -21.713457 -1.161871 -1.945577 12.446336 -0.172746 -0.147435 0.969610 0.047789 -0.268725 1.627162 0.074158 -1.848690 11.359578 0.361973 2.769242 14.511181 -3.508128 3.785811 -10.300124 -4.375911 2.436259 15.143502 9.700585 18.204709 -7.624186 -32.602526 133.047818 -39.104783 -174.216297 0.972904 0.937927 -8.452375 -2.685730 14.476889 -12.479862 -29.909437 -5.902244 32.869132 -118.546242 -41.922332 167.223649 10.466476 1.611297 24.511031 -15.250867 -60.425654 9.608970 -81.282476 78.889068 -89.507537 -4.132715 -11.639206 7.728883 0.363595 -0.772463 0.132843 10.328213 -59.135373 -7.601965 32.001657 84.293894 37.932085 -2.840649 -11.546824 0.752925 0.128572 0.542429 0.047528
-109.707529 51.900555 -43.611920 176.946814 -21.696526 -1.146974 -1.930038 12.468429 -0.174979 -0.160270 0.950101 0.043171 -0.276948 1.612689 0.070934 -1.836939 11.377292 0.363936 2.776280 14.569124 -3.507306 3.769061 -10.311849 -4.373831 2.454817 15.132201 9.682219 18.178923 -7.640580 -32.588277 133.048866 -39.108192 -174.204651 0.972971 0.927786 -8.411310 -2.694825 14.462762 -12.474724 -29.873583 -5.869422 32.842978 -118.565374 -41.952306 167.200980 10.469249 1.593191 24.482338 -15.266376 -60.443858 9.598256 -81.271322 78.895982 -89.503142 -4.110936 -11.633182 7.723519 0.350935 -0.784093 0.132949 10.358696 -59.146591 -7.640390 31.983428 84.293252 37.913666 -2.849827 -11.545250 0.751444 0.129102 0.539715 0.053580
-109.711924 51.896211 -43.612380 176.954314 -21.671974 -1.118013 -1.932799 12.463076 -0.198584 -0.157439 0.955249 0.044338 -0.280502 1.606379 0.068763 -1.832886 11.383111 0.365619 2.774506 14.600507 -3.505971 3.757147 -10.333566 -4.376122 2.464132 15.119248 9.668161 18.185642 -7.627885 -32.598261 133.030645 -39.115263 -174.213561 0.974128 0.926413 -8.377312 -2.684613 14.471922 -12.456087 -29.890656 -5.886920 32.836650 -118.550180 -42.009300 167.141650 10.472272 1.570332 24.453957 -15.272963 -60.475420 9.563599 -81.265388 78.909316 -89.509452 -4.074315 -11.630285 7.721804 0.323829 -0.792308 0.126000 10.411706 -59.164120 -7.706922 31.906449 84.296284 37.826292 -2.845864 -11.536128 0.760667 0.127795 0.531929 0.056079
